<svg width="96" height="96" viewBox="0 0 96 96" fill="none" xmlns="http://www.w3.org/2000/svg">
<rect width="96" height="96" fill="#0078FF"/>
<path d="M47.9994 23.5991C31.7008 23.5991 17.7819 33.7174 12.1426 48.0001C17.7819 62.2828 31.7008 72.401 47.9994 72.401C64.2979 72.401 78.2169 62.2828 83.8562 48.0001C78.2169 33.7174 64.2979 23.5991 47.9994 23.5991Z" fill="white"/>
<path d="M86.7939 77.3954L63.799 54.3562C66.0732 48.5331 64.8097 41.6973 60.0086 36.8869C54.9548 31.8234 47.374 30.8107 41.3094 33.5956L52.1751 44.4823L44.5944 52.0776L33.4759 41.191C30.4436 47.2672 31.7071 54.8626 36.7609 59.9261C41.5621 64.7365 48.3848 66.0024 54.1967 63.7238L77.1917 86.7629C78.2024 87.7756 79.7186 87.7756 80.7293 86.7629L86.5413 80.9398C87.8047 79.9271 87.8047 78.1549 86.7939 77.3954Z" fill="#0078FF"/>
</svg>
